<svg id="Layer_1" data-name="Layer 1" xmlns="http://www.w3.org/2000/svg" viewBox="0 0 1024 154.16"><defs><style>.cls-1{fill:#fff;}</style></defs><title>zazzlemedia-white</title><path class="cls-1" d="M263.92,433.54c-11.3.19-19.33-.32-24.06-1.6a48.15,48.15,0,0,1-14.23-6.31,52.39,52.39,0,0,1-7.85-6.45,46.52,46.52,0,0,1,0-65.61l.26-.26.32-.32.25-.25a46.38,46.38,0,0,1,65.61,0,52.24,52.24,0,0,1,6.45,7.85A50.62,50.62,0,0,1,297,374.77c1.21,4.79,1.72,12.82,1.59,24.06q-.26,15.41,11.4,24.65A75,75,0,1,0,288.57,445q-9.31-11.58-24.65-11.42" transform="translate(-172.3 -307.27)"/><path class="cls-1" d="M444.47,434.87a3,3,0,0,1-2.09.83H374.6a9,9,0,0,1-4.33-1,3.44,3.44,0,0,1-1.79-3.31v-11a8.7,8.7,0,0,1,.45-2.83,14,14,0,0,1,1.79-3.24l41.65-58.15a2.11,2.11,0,0,0,.6-1.38q0-1.1-1.64-1.1H374.15a3.12,3.12,0,0,1-2.09-.76,2.37,2.37,0,0,1-.9-1.88V335.79a2.37,2.37,0,0,1,.9-1.87,3.12,3.12,0,0,1,2.09-.77H438.5a8.7,8.7,0,0,1,4.18,1,3.11,3.11,0,0,1,1.79,2.89v1a8.57,8.57,0,0,0,.07,1,11.12,11.12,0,0,1,.07,1.31q0,1.52-.07,3.1c-.05,1.06-.07,2-.07,3v3.17a6.42,6.42,0,0,1-1.19,3.58l-42.1,59.53a2.86,2.86,0,0,0-.75,1.52c0,.64.55,1,1.64,1h40.31a3.32,3.32,0,0,1,2.09.69,2.18,2.18,0,0,1,.9,1.81v15.29A2.58,2.58,0,0,1,444.47,434.87Z" transform="translate(-172.3 -307.27)"/><path class="cls-1" d="M520.86,432.95a2.55,2.55,0,0,1-.9,1.93,3,3,0,0,1-2.09.83H501.15a3,3,0,0,1-2.09-.83,2.55,2.55,0,0,1-.9-1.93v-2.21a39.28,39.28,0,0,1-9.18,4.56,36,36,0,0,1-11.57,1.66,37.9,37.9,0,0,1-9.48-1.17,22.23,22.23,0,0,1-8.14-3.93,19.7,19.7,0,0,1-5.75-7.32,26.28,26.28,0,0,1-2.17-11.32V412q0-12.14,8.73-17.74t28-5.59h8.06v-5q0-5.93-3-7.73a16,16,0,0,0-8.21-1.79q-3.58,0-7.24.07t-7,.21q-3.36.14-6,.34l-4.48.35h-.75a3.17,3.17,0,0,1-1.94-.55,2.25,2.25,0,0,1-.75-1.93V361.44q0-2.35,2.84-3,4.18-1,11.27-1.93a107.88,107.88,0,0,1,14.56-1,61.47,61.47,0,0,1,14.56,1.59,29.69,29.69,0,0,1,11,5,22.63,22.63,0,0,1,6.94,8.7,30.55,30.55,0,0,1,2.46,12.91Zm-23.74-31.06h-8.51a27.6,27.6,0,0,0-6.42.62,9.88,9.88,0,0,0-4,1.86,6.53,6.53,0,0,0-2.09,3.17,14.93,14.93,0,0,0-.6,4.42v1.24q0,4.42,2.31,5.66t7.09,1.24a22.94,22.94,0,0,0,6.49-.9,41.6,41.6,0,0,0,5.75-2.14Z" transform="translate(-172.3 -307.27)"/><path class="cls-1" d="M590.56,434.88a3,3,0,0,1-2.09.82h-56a5.23,5.23,0,0,1-3.58-1.31,4.14,4.14,0,0,1-1.49-3.24v-8.83a7,7,0,0,1,.45-2.62,11.42,11.42,0,0,1,1.64-2.62l32.4-40.86a1.63,1.63,0,0,0,.45-1c0-.46-.35-.69-1-.69h-30q-2.54,0-2.54-2.21v-13a2.56,2.56,0,0,1,.9-1.93,3,3,0,0,1,2.09-.83h54.49a4.83,4.83,0,0,1,3.51,1.38,4.48,4.48,0,0,1,1.42,3.32v10.24a9.27,9.27,0,0,1-.3,2.28,7.45,7.45,0,0,1-1.34,2.56l-30.9,39.15a2.31,2.31,0,0,0-.45,1c0,.37.35.55,1,.55h29.56a3.21,3.21,0,0,1,1.94.55,1.91,1.91,0,0,1,.75,1.64V433A2.53,2.53,0,0,1,590.56,434.88Z" transform="translate(-172.3 -307.27)"/><path class="cls-1" d="M662.29,434.88a3,3,0,0,1-2.09.82h-56a5.23,5.23,0,0,1-3.58-1.31,4.14,4.14,0,0,1-1.49-3.24v-8.83a7,7,0,0,1,.45-2.62,11.42,11.42,0,0,1,1.64-2.62l32.4-40.86a1.63,1.63,0,0,0,.45-1c0-.46-.35-.69-1-.69H603q-2.54,0-2.54-2.21v-13a2.56,2.56,0,0,1,.9-1.93,3,3,0,0,1,2.09-.83H658a4.83,4.83,0,0,1,3.51,1.38,4.48,4.48,0,0,1,1.42,3.32v10.24a9.27,9.27,0,0,1-.3,2.28,7.45,7.45,0,0,1-1.34,2.56l-30.9,39.15a2.31,2.31,0,0,0-.45,1c0,.37.35.55,1,.55H660.5a3.21,3.21,0,0,1,1.94.55,1.91,1.91,0,0,1,.75,1.64V433A2.53,2.53,0,0,1,662.29,434.88Z" transform="translate(-172.3 -307.27)"/><path class="cls-1" d="M693.11,434.81a2.62,2.62,0,0,1-2,.9H672.88a3.1,3.1,0,0,1-2.16-.9,2.67,2.67,0,0,1-1-2V332.6a2.48,2.48,0,0,1,1-1.93,3.25,3.25,0,0,1,2.16-.83h18.21a2.73,2.73,0,0,1,2,.83,2.67,2.67,0,0,1,.82,1.93V432.81A2.9,2.9,0,0,1,693.11,434.81Z" transform="translate(-172.3 -307.27)"/><path class="cls-1" d="M777.87,399.82q0,3.31-3.14,3.31H727.11v.27a21.15,21.15,0,0,0,.75,5.61,11.92,11.92,0,0,0,2.54,4.79,12.66,12.66,0,0,0,4.7,3.28,19.07,19.07,0,0,0,7.39,1.23q3.58,0,7.61-.14l8-.28q4-.14,7.39-.34t5.67-.48h.45q2.84,0,2.84,2.21v10.57a4.31,4.31,0,0,1-.6,2.5,4.13,4.13,0,0,1-2.54,1.25,132.22,132.22,0,0,1-14,2.5,140.12,140.12,0,0,1-16.57.84,51.92,51.92,0,0,1-13.44-1.79,33.93,33.93,0,0,1-12.09-5.94,29.9,29.9,0,0,1-8.66-11q-3.29-6.83-3.28-16.77v-9.66a42.53,42.53,0,0,1,2.54-15,30.68,30.68,0,0,1,7.39-11.46A33.1,33.1,0,0,1,725,358.06a46.54,46.54,0,0,1,16-2.55,43.24,43.24,0,0,1,16,2.76,32.29,32.29,0,0,1,11.57,7.59,31.27,31.27,0,0,1,6.94,11.46,43.71,43.71,0,0,1,2.31,14.49Zm-23.59-11q0-7.73-3.58-11.53t-9.85-3.8a13.26,13.26,0,0,0-10,3.87q-3.73,3.87-3.73,11.46v.55h27.17Z" transform="translate(-172.3 -307.27)"/><path class="cls-1" d="M912.65,435.29a3.77,3.77,0,0,1-1.72.41H891.23a2.11,2.11,0,0,1-1.72-.83,3,3,0,0,1-.67-1.93V375.39c0-.74-.25-1.1-.75-1.1s-.8.32-1.19,1L873.46,398a5,5,0,0,1-4.48,2.35H857a5,5,0,0,1-4.48-2.35l-13.44-22.78c-.4-.64-.8-1-1.19-1s-.75.37-.75,1.1v57.56a3,3,0,0,1-.67,1.93,2.12,2.12,0,0,1-1.72.83H815.09a3.76,3.76,0,0,1-1.72-.41,1.54,1.54,0,0,1-.82-1.52V337.84a4.24,4.24,0,0,1,1.49-3.45,5.86,5.86,0,0,1,3.88-1.24h14a7,7,0,0,1,6.57,3.73l22.84,39.34q.9,1.8,1.64,1.79t1.64-1.79l22.84-39.34a7,7,0,0,1,6.57-3.73h14a5.67,5.67,0,0,1,3.88,1.31,4.46,4.46,0,0,1,1.49,3.52v95.8A1.55,1.55,0,0,1,912.65,435.29Z" transform="translate(-172.3 -307.27)"/><path class="cls-1" d="M997.69,399.82q0,3.31-3.14,3.31H946.93v.27a21.15,21.15,0,0,0,.75,5.61,11.92,11.92,0,0,0,2.54,4.79,12.64,12.64,0,0,0,4.7,3.28,19.07,19.07,0,0,0,7.39,1.23q3.58,0,7.61-.14l8-.28q4-.14,7.39-.34t5.67-.48h.45q2.84,0,2.84,2.21v10.57a4.31,4.31,0,0,1-.6,2.5,4.14,4.14,0,0,1-2.54,1.25,132.22,132.22,0,0,1-14,2.5,140.13,140.13,0,0,1-16.57.84,51.91,51.91,0,0,1-13.44-1.79A33.92,33.92,0,0,1,935,429.22a29.9,29.9,0,0,1-8.66-11Q923,411.41,923,401.47v-9.66a42.53,42.53,0,0,1,2.54-15A30.68,30.68,0,0,1,933,365.31a33.1,33.1,0,0,1,11.87-7.25,46.54,46.54,0,0,1,16-2.55,43.24,43.24,0,0,1,16,2.76,32.3,32.3,0,0,1,11.57,7.59,31.27,31.27,0,0,1,6.94,11.46,43.71,43.71,0,0,1,2.31,14.49Zm-23.59-11q0-7.73-3.58-11.53t-9.85-3.8a13.26,13.26,0,0,0-10,3.87q-3.73,3.87-3.73,11.46v.55H974.1Z" transform="translate(-172.3 -307.27)"/><path class="cls-1" d="M1078.2,429.36a3.4,3.4,0,0,1-.82,2.48,8.65,8.65,0,0,1-3.81,1.52,145.34,145.34,0,0,1-31.8,3.59q-18.22,0-27.84-9.25t-9.63-26.09V390.85q0-16.29,9.26-25.81t28.22-9.52q2.24,0,5.6.28t6.64.69V332.6a2.56,2.56,0,0,1,.9-1.93,3,3,0,0,1,2.09-.83h18.06a3.26,3.26,0,0,1,2.17.83,2.48,2.48,0,0,1,1,1.93ZM1054,374.7q-2.69-.28-6.12-.48t-6.12-.21a15,15,0,0,0-6.57,1.24,9.93,9.93,0,0,0-4,3.52,14.76,14.76,0,0,0-2.09,5.38,35.42,35.42,0,0,0-.6,6.69v10.77a36.22,36.22,0,0,0,.6,6.83,14.76,14.76,0,0,0,2.09,5.38,9.93,9.93,0,0,0,4,3.52,15,15,0,0,0,6.57,1.24q3.73,0,6.94-.28t5.3-.55Z" transform="translate(-172.3 -307.27)"/><path class="cls-1" d="M1117.55,344.88a2.55,2.55,0,0,1-.9,1.93,3,3,0,0,1-2.09.83h-19.41a3,3,0,0,1-2.09-.83,2.55,2.55,0,0,1-.9-1.93V332a2.56,2.56,0,0,1,.9-1.93,3,3,0,0,1,2.09-.83h19.41a3,3,0,0,1,2.09.83,2.56,2.56,0,0,1,.9,1.93Zm-.6,88.07a2.56,2.56,0,0,1-.9,1.93,3,3,0,0,1-2.09.83h-18.21a3,3,0,0,1-2.09-.83,2.55,2.55,0,0,1-.9-1.93V359.37a2.56,2.56,0,0,1,.9-1.93,3,3,0,0,1,2.09-.83H1114a3,3,0,0,1,2.09.83,2.56,2.56,0,0,1,.9,1.93Z" transform="translate(-172.3 -307.27)"/><path class="cls-1" d="M1196.3,432.95a2.55,2.55,0,0,1-.9,1.93,3,3,0,0,1-2.09.83h-16.72a3,3,0,0,1-2.09-.83,2.56,2.56,0,0,1-.9-1.93v-2.21a39.28,39.28,0,0,1-9.18,4.56,36,36,0,0,1-11.57,1.66,37.9,37.9,0,0,1-9.48-1.17,22.24,22.24,0,0,1-8.14-3.93,19.71,19.71,0,0,1-5.75-7.32,26.29,26.29,0,0,1-2.17-11.32V412q0-12.14,8.73-17.74t28-5.59h8.06v-5q0-5.93-3-7.73a16,16,0,0,0-8.21-1.79q-3.58,0-7.24.07t-7,.21q-3.36.14-6,.34l-4.48.35h-.75a3.17,3.17,0,0,1-1.94-.55,2.25,2.25,0,0,1-.75-1.93V361.44q0-2.35,2.84-3,4.18-1,11.27-1.93a107.89,107.89,0,0,1,14.56-1,61.49,61.49,0,0,1,14.56,1.59,29.71,29.71,0,0,1,11,5,22.64,22.64,0,0,1,6.94,8.7,30.55,30.55,0,0,1,2.46,12.91Zm-23.74-31.06h-8.51a27.61,27.61,0,0,0-6.42.62,9.87,9.87,0,0,0-4,1.86,6.53,6.53,0,0,0-2.09,3.17,15,15,0,0,0-.6,4.42v1.24q0,4.42,2.31,5.66t7.09,1.24a22.94,22.94,0,0,0,6.49-.9,41.54,41.54,0,0,0,5.75-2.14Z" transform="translate(-172.3 -307.27)"/><path class="cls-1" d="M295.58,452.35l8.65,8.61a1.62,1.62,0,0,0,2.3,0l3.92-3.92a2.54,2.54,0,0,1,3.46,0l1.21,1.21a1.62,1.62,0,0,0,2.3,0l5.9-5.91a1.62,1.62,0,0,0,0-2.3l-1.21-1.21a2.54,2.54,0,0,1,0-3.46l3.92-3.92a1.62,1.62,0,0,0,0-2.3l-8.63-8.59A85,85,0,0,1,295.58,452.35Z" transform="translate(-172.3 -307.27)"/></svg>