<svg viewBox="0 0 257 70" version="1.1" xmlns="http://www.w3.org/2000/svg" xmlns:xlink="http://www.w3.org/1999/xlink">
    <title>Cassiopeia</title>
    <defs>
        <linearGradient x1="50%" y1="0%" x2="50%" y2="100%" id="linearGradient-1">
            <stop stop-color="#4E47FE" offset="0%"></stop>
            <stop stop-color="#1E1479" offset="100%"></stop>
        </linearGradient>
        <linearGradient x1="50%" y1="0%" x2="50%" y2="97.4071269%" id="linearGradient-8">
            <stop stop-color="#CFD8DC" offset="0%"></stop>
            <stop stop-color="#90A4AE" offset="100%"></stop>
        </linearGradient>
    </defs>
        <g id="cassiopeia" transform="translate(8.000000, 7.000000)">
            <path d="M12.683036,40.9999816 C10.9315532,41.0028983 9.28361349,40.6596036 7.73980023,39.9700977 C6.19540363,39.2805917 4.85080149,38.3361669 3.70657715,37.1371149 C2.56176947,35.9380629 1.65875684,34.5301758 0.997247584,32.9131618 C0.33544666,31.2964395 0.00294200906,29.570633 2.53015914e-05,27.7354505 C-0.00347474737,25.7007663 0.356155283,23.7903331 1.07862372,22.004151 C1.80138383,20.2182606 2.79510607,18.6569555 4.06066543,17.3202356 C5.32593313,15.9838074 6.80032876,14.9302983 8.48414398,14.1602917 C10.1673759,13.3902851 11.9763178,13.0032401 13.9115532,13.0000317 C15.4127826,12.9974067 16.7973436,13.1578247 18.0658197,13.4807025 C19.3337124,13.803872 20.427186,14.2521675 21.3456572,14.8261725 C22.2638367,15.4001774 22.9825134,16.0788916 23.5008124,16.8620233 C24.0191113,17.6451551 24.2792816,18.4869124 24.2807399,19.3875868 C24.281615,19.7877569 24.1777802,20.1678019 23.9701106,20.526555 C23.7618577,20.8858914 23.4914789,21.1988524 23.1586826,21.4663131 C22.8250112,21.7337737 22.4464226,21.9469839 22.0211667,22.1062353 C21.5962024,22.2654866 21.1665714,22.345404 20.7331486,22.3459873 C20.2489752,22.3468623 19.8152608,22.2602366 19.4317138,22.0855267 C19.0472917,21.9111086 18.7177038,21.6865233 18.4420749,21.4114793 C18.1661544,21.1367269 17.9570265,20.8246409 17.8149828,20.4743462 C17.6723558,20.1243432 17.6011882,19.7658817 17.6003132,19.3989619 C17.5994381,18.7820816 17.5314789,18.2022432 17.3973103,17.6603219 C17.2625584,17.1186922 17.0283468,16.6520215 16.6943838,16.2603098 C16.3598375,15.8691814 15.9007477,15.5611788 15.3165312,15.3368852 C14.732023,15.1128833 13.9900127,15.0014656 13.0893334,15.002924 C11.8713164,15.0049657 10.7793011,15.2531761 9.8129959,15.7466804 C8.84610737,16.2404763 8.02942928,16.9048987 7.36412831,17.7399476 C6.698244,18.5752881 6.19132024,19.5558799 5.84306537,20.6823063 C5.49451882,21.8090244 5.3212664,23.0063263 5.32359977,24.2739206 C5.32651647,25.9918521 5.55431133,27.6179078 6.00756767,29.1515044 C6.46053234,30.6856843 7.09637456,32.0270708 7.91596936,33.1765391 C8.73468915,34.326299 9.72082794,35.2377652 10.8729274,35.911521 C12.0250268,36.5849852 13.3098365,36.9206964 14.727648,36.9180714 C15.9786238,36.9160297 17.0624723,36.718278 17.9794851,36.3248162 C18.8959146,35.9313545 19.6918841,35.4002249 20.3662268,34.7317192 C21.0408613,34.0635051 21.618661,33.2870817 22.1013761,32.4018657 C22.5832162,31.5172331 23.0151806,30.5824334 23.3975609,29.5974665 L25,30.2452638 C24.5522854,31.93082 23.9459019,33.4413747 23.1811412,34.7772196 C22.4160889,36.1130644 21.5127846,37.2403658 20.4721033,38.1594154 C19.4311304,39.0787567 18.2562807,39.7813877 16.9478457,40.2670169 C15.6388274,40.7529378 14.2175158,40.9973565 12.683036,40.9999816" id="Fill-1" fill="url(#linearGradient-1)"></path>
            <path d="M42.7264919,24.7497417 C41.9747262,25.0011003 41.1949479,25.2862845 40.3860136,25.6044194 C39.5773652,25.9225543 38.7850098,26.2785971 38.0095192,26.6716731 C37.2334568,27.064749 36.4942681,27.4913588 35.7925248,27.951211 C35.0902098,28.4113548 34.4736476,28.9000753 33.9436956,29.4176642 C33.4128861,29.9358363 32.9929835,30.4866674 32.6837019,31.0710326 C32.3738486,31.6553977 32.2197795,32.2642571 32.2206371,32.8976109 C32.2217804,33.5481691 32.3412626,34.1692757 32.5793694,34.7606392 C32.8171903,35.3522943 33.1327604,35.8690084 33.5257939,36.3099066 C33.9191131,36.751388 34.3733168,37.1007241 34.8886909,37.3582063 C35.4040649,37.6162717 35.9394478,37.7439922 36.4954115,37.7431174 C37.0839612,37.7422427 37.6433549,37.6620528 38.1747361,37.502548 C38.7055456,37.3433347 39.2200621,37.129884 39.7185714,36.8621958 C40.216509,36.5947992 40.7141608,36.2810383 41.2126701,35.9214963 C41.7103219,35.5622459 42.2205507,35.1817087 42.7433566,34.780468 L42.7264919,24.7497417 Z M48,40.3995876 L42.7525036,40.4089188 L42.7465009,36.7315593 C42.125651,37.2167806 41.517664,37.7092919 40.9222541,38.2108428 C40.3259867,38.7121021 39.681126,39.1719543 38.9871005,39.5898162 C38.2930749,40.0079697 37.525302,40.3470997 36.6840675,40.6069147 C35.8425472,40.8667298 34.8658235,40.9979495 33.7544679,40.9999907 C32.7245774,41.0014487 31.7927309,40.8320294 30.9583566,40.491733 C30.1239824,40.1517281 29.4119488,39.68167 28.8225415,39.0821417 C28.2331343,38.482905 27.7823607,37.7749018 27.4705066,36.9584236 C27.1583666,36.1419454 27.0017249,35.2581077 27.0000098,34.3074938 C26.9982948,33.1571344 27.2209661,32.1184574 27.6691671,31.1920463 C28.1170823,30.2659267 28.7287852,29.4354518 29.5042759,28.7000382 C30.2791949,27.9649162 31.1856014,27.3131916 32.222638,26.7439897 C33.2596745,26.1756625 34.3581672,25.6647805 35.518116,25.2125099 C36.677779,24.7602393 37.8746015,24.3578322 39.1082977,24.0055801 C40.3419939,23.6533281 41.5471058,23.325862 42.7236335,23.0237651 L42.7207751,21.347652 C42.7187742,20.1308079 42.5984345,19.1011705 42.3600418,18.2590316 C42.1216492,17.4174759 41.7814966,16.738341 41.3390125,16.2222101 C40.8968141,15.7063708 40.3605736,15.3360396 39.7311485,15.1117997 C39.1014375,14.8878514 38.3942631,14.7764605 37.6096255,14.7779185 C36.7269439,14.7793765 36.0074784,14.8974742 35.4523722,15.1319201 C34.8966944,15.366366 34.460213,15.6757529 34.1420703,16.0594976 C33.8239276,16.4441172 33.6078307,16.8820994 33.4943512,17.3740276 C33.3805859,17.8662473 33.3242749,18.3625494 33.3251324,18.8629339 C33.32599,19.3297844 33.2899738,19.7800138 33.217084,20.2136221 C33.14448,20.6478135 33.010134,21.0268927 32.8146178,21.3526092 C32.6188156,21.6780341 32.3535538,21.9410567 32.0188323,22.141677 C31.6838249,22.342589 31.2550611,22.4434824 30.7322552,22.4443572 C30.3232146,22.4449404 29.9510477,22.3667917 29.6160403,22.2087449 C29.2804612,22.0509896 28.9900452,21.8305405 28.7442207,21.547106 C28.498682,21.2642546 28.310026,20.9312481 28.1788243,20.5475034 C28.0470509,20.1643418 27.9813071,19.7476463 27.9804496,19.2971253 C27.9790204,18.4135793 28.2634336,17.5874783 28.8345469,16.819114 C29.4053744,16.0513329 30.1722898,15.3873611 31.1364365,14.8266156 C32.0997257,14.2664532 33.2268026,13.8223474 34.5179531,13.4948813 C35.808532,13.1674152 37.1651404,13.0026616 38.5874927,13.0000372 C40.319984,12.9971212 41.7834975,13.1656656 42.9774616,13.5053789 C44.1711399,13.8450921 45.1367158,14.3233151 45.8733319,14.9385897 C46.609948,15.5544476 47.1421867,16.3041495 47.4709056,17.1871124 C47.7993386,18.0706584 47.9642697,19.0460583 47.9662706,20.1130203 L48,40.3995876 Z" id="Fill-3" fill="url(#linearGradient-1)"></path>
            <path d="M60.8221258,39.1483043 C61.5491984,39.1471376 62.218475,39.0330854 62.8293777,38.807023 C63.4402805,38.5806688 63.9647784,38.2840165 64.4020044,37.9161911 C64.8392305,37.5486573 65.1816713,37.1224931 65.4287488,36.6382819 C65.6758263,36.1540707 65.7989316,35.6616921 65.7980646,35.1611461 C65.7966197,34.3441127 65.5928892,33.6312138 65.1871619,33.0227412 C64.7811456,32.414852 64.2430657,31.8650098 63.5729221,31.3740896 C62.9027786,30.8834612 62.1375607,30.4383369 61.2778466,30.0393002 C60.4175544,29.6405553 59.5451252,29.2289757 58.6605588,28.8051451 C57.7754145,28.3813145 56.9026962,27.9242308 56.0426931,27.4333107 C55.182401,26.9429739 54.4171831,26.3770886 53.7467506,25.7359463 C53.076318,25.0950957 52.5379491,24.3533192 52.1316439,23.5114918 C51.7250497,22.6699561 51.5210301,21.6735312 51.5192962,20.5225087 C51.5175624,19.438284 51.7429664,18.4369003 52.1960863,17.5186492 C52.6489173,16.6006898 53.275136,15.8069918 54.0758983,15.1384304 C54.8760827,14.4698689 55.8340499,13.9465708 56.9489329,13.5694111 C58.063816,13.1922514 59.2821538,13.002359 60.6045242,13.0000254 C61.4801322,12.998567 62.3066137,13.0598226 63.0836797,13.1835006 C63.8607457,13.3071787 64.6170052,13.5481175 65.3533251,13.9051503 C66.089067,14.2630582 66.8253869,14.7659378 67.5619958,15.4152475 C68.2983157,16.0645572 69.0644004,16.9139686 69.8593832,17.9637734 L67.9287108,19.7186014 C66.9175714,18.0524483 65.7879503,16.8115842 64.5386918,15.9960092 C63.2894332,15.1810176 61.9540587,14.7743969 60.5331463,14.7767304 C59.7893129,14.7781889 59.1035645,14.8753228 58.4761899,15.0681322 C57.8479483,15.2609416 57.3118913,15.5205488 56.8659958,15.8466621 C56.4203894,16.1724838 56.0739029,16.5528521 55.8268254,16.986892 C55.5797479,17.4212236 55.4563536,17.8800574 55.4572205,18.3636852 C55.4583764,19.1643838 55.6829136,19.8647399 56.1302539,20.4644617 C56.5773053,21.0641835 57.1648007,21.6055666 57.8927401,22.0880276 C58.6206796,22.5704886 59.4477391,23.0153212 60.3742075,23.4222336 C61.300098,23.8297294 62.2511297,24.2448092 63.2270136,24.6686398 C64.2026086,25.0924705 65.1536402,25.5454704 66.0801087,26.0273481 C67.0062881,26.5098091 67.8336366,27.0716108 68.562154,27.7121696 C69.2900935,28.3533119 69.8781669,29.0947967 70.3257962,29.9360408 C70.7734255,30.7781598 70.9982516,31.7576666 70.9999855,32.8751443 C71.0020083,34.0098319 70.7930761,35.0736381 70.3731888,36.0668544 C69.9535905,37.0600707 69.3230371,37.9199831 68.4812397,38.6471749 C67.6397313,39.3743668 66.5785984,39.9475445 65.298708,40.366708 C64.0185286,40.7855799 62.5271051,40.9970576 60.8253046,40.9999746 C60.0482386,41.001433 59.250944,40.9401774 58.4325539,40.8164994 C57.6141639,40.6928213 56.7873934,40.4518825 55.9522425,40.0951414 C55.1170916,39.7378169 54.2816517,39.2346456 53.4462119,38.5853359 C52.610194,37.9363179 51.7949827,37.0869065 51,36.0371016 L53.1534756,34.0567946 C53.7996338,34.9732955 54.4206509,35.7521171 55.0165267,36.3932594 C55.6126915,37.0346934 56.2123241,37.5588665 56.8165803,37.966654 C57.4202586,38.3744415 58.0485001,38.673719 58.7021719,38.8641949 C59.3549767,39.0552541 60.0618206,39.1494711 60.8221258,39.1483043" id="Fill-5" fill="url(#linearGradient-1)"></path>
            <path d="M82.8221258,39.1483043 C83.5491984,39.1471376 84.218475,39.0330854 84.8293777,38.807023 C85.4402805,38.5806688 85.9647784,38.2840165 86.4020044,37.9158994 C86.8392305,37.5486573 87.1816713,37.1224931 87.4287488,36.6382819 C87.6758263,36.1540707 87.7989316,35.6616921 87.7980646,35.1611461 C87.7966197,34.3441127 87.5928892,33.6312138 87.1871619,33.0227412 C86.7811456,32.414852 86.2430657,31.8650098 85.5729221,31.3740896 C84.9027786,30.8834612 84.1375607,30.4383369 83.2778466,30.0393002 C82.4175544,29.6402636 81.5451252,29.2289758 80.6605588,28.8051451 C79.7754145,28.3813145 78.9026962,27.9242308 78.0426931,27.4333107 C77.182401,26.9429739 76.4171831,26.3770886 75.7467506,25.7359463 C75.076318,25.0950957 74.5379491,24.3533192 74.1316439,23.5114918 C73.7250497,22.6699561 73.5210301,21.6732395 73.5192962,20.5225087 C73.5175624,19.438284 73.7429664,18.4369003 74.1960863,17.5186492 C74.6489173,16.6006898 75.275136,15.8069918 76.0758983,15.1381387 C76.8760827,14.4698689 77.8340499,13.9465708 78.9489329,13.5694111 C80.063816,13.1919598 81.2821538,13.002359 82.6045242,13.0000254 C83.4801322,12.998567 84.3066137,13.0598226 85.0836797,13.1835006 C85.8607457,13.3071787 86.6170052,13.5478258 87.3533251,13.9051503 C88.089067,14.2630582 88.8253869,14.7659378 89.5619958,15.4152475 C90.2983157,16.0645572 91.0644004,16.9139686 91.8593832,17.9637734 L89.9287108,19.7186014 C88.9175714,18.0524483 87.7879503,16.8112925 86.5386918,15.9960092 C85.2894332,15.1810176 83.9540587,14.7741052 82.5331463,14.7767304 C81.7893129,14.7781889 81.1035645,14.8753228 80.4761899,15.0678405 C79.8479483,15.2609416 79.3118913,15.5205488 78.8659958,15.8466621 C78.4203894,16.1724838 78.0739029,16.5528521 77.8268254,16.9866003 C77.5797479,17.4212236 77.4563536,17.8800574 77.4572205,18.3636852 C77.4583764,19.1643838 77.6829136,19.8647399 78.1302539,20.4644617 C78.5773053,21.0641835 79.1648007,21.6052749 79.8927401,22.0880276 C80.6206796,22.5704886 81.4477391,23.0153212 82.3742075,23.4222336 C83.300098,23.8297294 84.2511297,24.2448092 85.2270136,24.6683481 C86.2026086,25.0924705 87.1536402,25.5454704 88.0801087,26.0273481 C89.0062881,26.5098091 89.8336366,27.0716108 90.562154,27.7121696 C91.2900935,28.3533119 91.8781669,29.0947967 92.3257962,29.9360408 C92.7734255,30.7781598 92.9982516,31.7576666 92.9999855,32.8751443 C93.0020083,34.0098319 92.7930761,35.0736381 92.3731888,36.0665627 C91.9535905,37.0600707 91.3230371,37.9199831 90.4812397,38.6471749 C89.6397313,39.3740751 88.5785984,39.9475445 87.298708,40.366708 C86.0185286,40.7855799 84.5271051,40.9970576 82.8253046,40.9999746 C82.0482386,41.001433 81.250944,40.9401774 80.4325539,40.8162077 C79.6141639,40.6925296 78.7873934,40.4518825 77.9522425,40.0948497 C77.1170916,39.7378169 76.2816517,39.2343539 75.4462119,38.5853359 C74.610194,37.9363179 73.7949827,37.0869065 73,36.0371016 L75.1534756,34.0567946 C75.7996338,34.9732955 76.4206509,35.7521171 77.0165267,36.3932594 C77.6126915,37.0344017 78.2123241,37.5588665 78.8165803,37.966654 C79.4202586,38.3744415 80.0485001,38.673719 80.7021719,38.8641949 C81.3549767,39.0549624 82.0618206,39.1494711 82.8221258,39.1483043" id="Fill-7" fill="url(#linearGradient-1)"></path>
            <path d="M95.5375678,14.8729783 L99.8204298,13.3265915 L101.591661,13.3239431 L101.644951,40.9908776 L95.5878604,41 L95.5375678,14.8729783 Z M98.4805158,3.63295816e-06 C98.9564634,-0.000584906264 99.4090965,0.07033407 99.8380821,0.212760562 C100.267068,0.355187053 100.638766,0.548227918 100.953178,0.791588887 C101.268256,1.03524412 101.520718,1.32068565 101.71223,1.64879626 C101.903075,1.97661261 101.99933,2.32591064 101.999997,2.69580754 C102.000663,3.06629298 101.90574,3.41529674 101.716227,3.74399589 C101.52638,4.07240078 101.274584,4.35901938 100.960839,4.60326316 C100.64676,4.84780121 100.275727,5.04201915 99.847741,5.18562272 C99.4190884,5.32922629 98.9667883,5.40132234 98.4908408,5.40220515 C98.0145601,5.40279369 97.5665899,5.33216899 97.1475962,5.18974249 C96.7282694,5.047316 96.3612335,4.85427514 96.0464886,4.6106199 C95.7317437,4.3675532 95.4786156,4.08152314 95.2877703,3.75341252 C95.0965919,3.42559618 95.0006696,3.07688669 95.0000035,2.70640125 C94.9993374,2.33621008 95.0935943,1.98661778 95.2837735,1.65821289 C95.4732866,1.32980801 95.7254155,1.04348367 96.0391612,0.798945627 C96.3529069,0.55470185 96.7192767,0.360483906 97.1379373,0.216586067 C97.556598,0.0732767661 98.0042352,0.000886441791 98.4805158,3.63295816e-06 L98.4805158,3.63295816e-06 Z" id="Fill-9" fill="url(#linearGradient-1)"></path>
            <path d="M152.432577,33.8167455 C152.434054,34.6425078 152.612511,35.4252522 152.968242,36.1643771 C153.324859,36.903502 153.823886,37.5433549 154.467393,38.0842367 C155.110308,38.6251185 155.879384,39.0540938 156.775802,39.3702599 C157.67163,39.6876294 158.652253,39.8446596 159.716786,39.8428547 C160.730501,39.8410497 161.680397,39.5772269 162.566769,39.0507847 C163.452846,38.5246433 164.228718,37.7792011 164.894679,36.8144581 C165.56064,35.8503167 166.082418,34.7008677 166.460604,33.3667126 C166.838494,32.0328584 167.026109,30.5488929 167.02345,28.9142145 C167.019905,26.8671063 166.83938,25.0823166 166.482172,23.5604473 C166.124964,22.038578 165.6283,20.7709051 164.993362,19.7568269 C164.357537,18.7427488 163.608553,17.9873793 162.745817,17.4898162 C161.883672,16.9922531 160.936435,16.7446748 159.906175,16.7461789 C159.111689,16.7476831 158.356205,16.8740292 157.638243,17.1243149 C156.920281,17.3752022 156.245456,17.7073121 155.612586,18.1212461 C154.979421,18.5354809 154.392938,19.0137913 153.853432,19.5567789 C153.31304,20.0994656 152.832627,20.6638117 152.4116,21.2495163 L152.432577,33.8167455 Z M147,13.5944444 L152.398895,13.5851189 L152.408054,19.2364012 C152.947264,18.5303669 153.549997,17.8110964 154.216549,17.0785896 C154.882806,16.3463837 155.621154,15.6785541 156.431003,15.0748 C157.241148,14.4713468 158.131361,13.9752878 159.10253,13.5863222 C160.073404,13.1976574 161.141778,13.0021217 162.307653,13.0000159 C163.912578,12.9973085 165.375093,13.3393456 166.694311,14.0249238 C168.013233,14.7108028 169.138631,15.6421544 170.069913,16.8189784 C171.000899,17.9958024 171.72152,19.3753819 172.23148,20.9571152 C172.740553,22.5391494 172.997306,24.224667 172.999965,26.0136682 C173.003806,28.3020374 172.694166,30.4141237 172.073115,32.3505287 C171.450586,34.2869336 170.566281,35.9619224 169.419906,37.3745926 C168.27294,38.7872628 166.880744,39.8906857 165.243319,40.6848614 C163.605303,41.4787363 161.764602,41.8779299 159.720332,41.8815398 C158.959824,41.8827431 158.258113,41.8451401 157.616379,41.7690316 C156.973463,41.6926223 156.361275,41.5731951 155.778042,41.4110509 C155.195105,41.2486059 154.632554,41.0386306 154.091571,40.781426 C153.550293,40.5242213 153.000742,40.2155758 152.442623,39.8554893 L152.464486,52.9903736 L147.065887,53 L147,13.5944444 Z" id="Fill-13" fill="url(#linearGradient-1)"></path>
            <path d="M194.550734,22.1741767 C194.548978,21.1567706 194.367453,20.2102446 194.005866,19.335182 C193.643987,18.4601195 193.149185,17.7017319 192.519995,17.0606027 C191.891098,16.4197652 191.153286,15.9163125 190.307437,15.5505364 C189.461003,15.1853436 188.552206,15.0030389 187.581047,15.0044973 C186.777359,15.0059558 186.003534,15.1911774 185.259281,15.5589953 C184.514735,15.9273967 183.854218,16.4290992 183.277436,17.0635196 C182.700655,17.698815 182.224883,18.4542857 181.849536,19.330515 C181.474482,20.2070361 181.245818,21.1544371 181.163839,22.1718432 L194.550734,22.1741767 Z M189.233218,40.9999813 C187.408012,41.0028982 185.695234,40.6636656 184.095178,39.9825753 C182.494536,39.3014849 181.095036,38.3739186 179.896091,37.1998763 C178.696854,36.025834 177.748239,34.6511107 177.050831,33.075998 C176.353423,31.5008854 176.002962,29.8123063 176.000034,28.0108441 C175.996228,25.8587736 176.310676,23.8650893 176.943965,22.0289163 C177.576961,20.1930351 178.470533,18.6068383 179.623511,17.270326 C180.776488,15.9338138 182.168669,14.8886974 183.79976,14.1352685 C185.431437,13.3818396 187.24259,13.0035209 189.235561,13.0000207 C191.010115,12.9971038 192.635058,13.303084 194.109511,13.9176696 C195.583964,14.5325469 196.849956,15.3603561 197.906608,16.4008055 C198.962967,17.4418383 199.785393,18.6459244 200.373886,20.0124805 C200.962086,21.3793282 201.257796,22.8135558 201.260431,24.3148715 L181.142466,24.3489989 C181.145687,26.1504611 181.382548,27.822414 181.854221,29.3642742 C182.325308,30.9067179 182.980555,32.2362296 183.820255,33.3522261 C184.65937,34.4685143 185.665371,35.3427018 186.83855,35.974497 C188.011437,36.6065838 189.292946,36.921023 190.682785,36.9186895 C191.854793,36.9166477 192.976443,36.7270508 194.047441,36.3501905 C195.118147,35.9730385 196.088721,35.4795032 196.958578,34.8687096 C197.827556,34.2587909 198.567418,33.5566991 199.177869,32.763309 C199.787443,31.9699189 200.217247,31.1561107 200.466991,30.321301 L202,30.9942241 C201.61704,32.3800316 200.995756,33.6777494 200.135561,34.8882526 C199.275073,36.0996309 198.272293,37.1561231 197.127221,38.058896 C195.981563,38.9616689 194.727282,39.6768867 193.363209,40.2045495 C191.999428,40.7325039 190.622764,40.9973562 189.233218,40.9999813 L189.233218,40.9999813 Z" id="Fill-15" fill="url(#linearGradient-1)"></path>
            <path d="M204.537597,14.8729783 L208.819994,13.3268858 L210.591642,13.3239431 L210.644934,40.9908776 L204.587559,41 L204.537597,14.8729783 Z M207.480351,3.61812976e-06 C207.95632,-0.000584921093 208.408975,0.0706283248 208.837981,0.212760547 C209.266653,0.355481308 209.638369,0.548227904 209.953462,0.791588872 C210.268222,1.03524411 210.520696,1.3209799 210.712216,1.64879625 C210.902737,1.9766126 210.998997,2.32591062 210.999997,2.6961018 C211.000663,3.06629297 210.905735,3.41559099 210.716546,3.74399588 C210.526025,4.07240077 210.27455,4.35901937 209.96079,4.60355741 C209.646696,4.84809546 209.275646,5.04231341 208.847307,5.18562271 C208.418967,5.32952055 207.966646,5.40132233 207.490676,5.40220514 C207.014706,5.40279368 206.566382,5.33216897 206.147368,5.18974248 C205.727689,5.04761026 205.360969,4.85456939 205.046209,4.61061989 C204.731449,4.36755319 204.478309,4.08152312 204.287455,3.75370678 C204.096268,3.42589043 204.000674,3.07688667 204.000008,2.70640123 C203.999009,2.33650433 204.09327,1.98691203 204.283125,1.65850715 C204.47298,1.33010226 204.725121,1.04348366 205.038881,0.798945612 C205.352642,0.554701835 205.719029,0.360778161 206.138042,0.216586052 C206.556389,0.0732767513 207.004048,0.000886426963 207.480351,3.61812976e-06 L207.480351,3.61812976e-06 Z" id="Fill-17" fill="url(#linearGradient-1)"></path>
            <path d="M231.72642,24.7497417 C230.974644,25.0011003 230.194855,25.2862845 229.38591,25.6044194 C228.577536,25.9228459 227.784884,26.2785971 227.009383,26.671673 C226.23331,27.064749 225.494112,27.4913588 224.792359,27.951211 C224.089748,28.4113548 223.473463,28.9000753 222.943218,29.4176642 C222.412973,29.9358362 221.992779,30.4866674 221.683208,31.0710325 C221.373636,31.6553976 221.219279,32.2642571 221.220422,32.8976109 C221.221566,33.5481691 221.341049,34.1692757 221.579159,34.7606392 C221.816984,35.3522943 222.132558,35.8690084 222.525883,36.3101982 C222.918921,36.751388 223.372846,37.1007241 223.888512,37.3582063 C224.403893,37.6162717 224.939284,37.7439922 225.495255,37.7431174 C226.083813,37.7422426 226.6435,37.6620528 227.174602,37.502548 C227.705419,37.3433347 228.219943,37.129884 228.718459,36.8621958 C229.216403,36.5947992 229.714062,36.2810383 230.212292,35.9214963 C230.710236,35.5622458 231.220472,35.1817087 231.743285,34.780468 L231.72642,24.7497417 Z M237,40.3995876 L231.752432,40.4089188 L231.746144,36.7315593 C231.125571,37.2167806 230.517576,37.7092919 229.922158,38.2108428 C229.326168,38.7121021 228.681299,39.1719543 227.987264,39.5898162 C227.292943,40.0082613 226.525445,40.3470997 225.683628,40.6069147 C224.842382,40.8667298 223.865931,40.9979495 222.754274,40.9999907 C221.724655,41.0014487 220.79251,40.8320294 219.958125,40.491733 C219.123739,40.1517281 218.411982,39.68167 217.822281,39.0821417 C217.233151,38.482905 216.7818,37.7751934 216.470227,36.9584236 C216.158083,36.1419454 216.001439,35.2581077 216.00001,34.3074938 C215.998295,33.1571343 216.220683,32.1184574 216.66889,31.1920463 C217.116812,30.2659267 217.728237,29.4354517 218.503738,28.7000382 C219.278954,27.9649162 220.185087,27.3131916 221.222423,26.7439897 C222.259474,26.1756625 223.357982,25.6647804 224.517946,25.2125098 C225.677911,24.7602392 226.874178,24.3578321 228.108463,24.0055801 C229.34189,23.6533281 230.547018,23.3261536 231.723276,23.0237651 L231.720417,21.3476519 C231.718702,20.1308078 231.598361,19.1011705 231.360251,18.2593231 C231.121569,17.4177674 230.781126,16.7386325 230.338922,16.22221 C229.897003,15.7063708 229.36047,15.3360396 228.731036,15.1120913 C228.10103,14.8878514 227.394132,14.7764604 226.609484,14.7779184 C225.72679,14.7793764 225.007315,14.8974742 224.452201,15.13192 C223.896516,15.3663659 223.459743,15.6757528 223.141882,16.0597892 C222.823735,16.4441171 222.607921,16.8820994 222.49444,17.3740275 C222.380387,17.8662472 222.324075,18.3625493 222.324933,18.8629338 C222.32579,19.3297844 222.289774,19.7800138 222.216597,20.213622 C222.144278,20.6478135 222.00993,21.0268927 221.814125,21.3526091 C221.618606,21.678034 221.353341,21.9413482 221.018615,22.1419686 C220.683603,22.342589 220.254833,22.4434823 219.731734,22.4443571 C219.322974,22.4449403 218.950802,22.3667917 218.61579,22.2087449 C218.280206,22.0509896 217.989786,21.8305405 217.743959,21.5473975 C217.498702,21.2642545 217.309758,20.9312481 217.178269,20.5475033 C217.046779,20.1643418 216.981035,19.7476463 216.980177,19.2971253 C216.978748,18.4135792 217.263165,17.5874782 217.834286,16.8191139 C218.405121,16.0513328 219.172333,15.3873611 220.135921,14.8266155 C221.099223,14.2664531 222.226602,13.8223473 223.517484,13.4948812 C224.80808,13.1674152 226.164993,13.0026615 227.587365,13.0000371 C229.319594,12.9971211 230.783413,13.1659572 231.977679,13.5053788 C233.171374,13.8450921 234.136677,14.323315 234.873303,14.9385897 C235.609929,15.5544475 236.142175,16.3041495 236.471184,17.1871123 C236.799336,18.0706584 236.964555,19.0460582 236.96627,20.1130203 L237,40.3995876 Z" id="Fill-19" fill="url(#linearGradient-1)"></path>
        </g>
        <g id="star-circle" transform="translate(113.000000, 14.000000)">
            <path d="M19.5001947,0 C17.1124449,0 14.7222586,0.43835225 12.4534532,1.31771477 L12.4534532,1.31771477 C7.63121743,3.18674776 3.74857671,6.89446797 1.66029234,11.6261914 L1.66029234,11.6261914 C-0.428213535,16.3574719 -0.550923499,21.7249058 1.31807772,26.5470021 L1.31807772,26.5470021 C3.18685745,31.3686553 6.89473615,35.251362 11.6261577,37.3396819 L11.6261577,37.3396819 C16.3571363,39.4277803 21.724922,39.5511568 26.5471578,37.6823453 L26.5471578,37.6823453 C31.3691721,35.8133123 35.2513698,32.1049276 37.3398757,27.3738686 L37.3398757,27.3738686 C39.427717,22.6428097 39.5510915,17.2749328 37.6825333,12.453058 L37.6825333,12.453058 C35.8133105,7.63074027 32.1049888,3.74825506 27.3737888,1.6603782 L27.3737888,1.6603782 C24.8693094,0.554862246 22.1871886,0 19.5015237,0 L19.5015237,0 L19.5001947,0 M14.0551062,31.8362458 C10.7835788,30.3924965 8.21929497,27.7074505 6.92707488,24.372961 L6.92707488,24.372961 C5.63463329,21.03825 5.71968857,17.3265427 7.16385638,14.0551812 L7.16385638,14.0551812 C8.60758119,10.7835982 11.2925815,8.2192708 14.6272359,6.92702875 L14.6272359,6.92702875 C17.9616687,5.6347867 21.6733129,5.71962192 24.9446188,7.16381428 L24.9446188,7.16381428 C28.2165892,8.60778513 30.7810945,11.2926096 32.0733146,14.6268776 L32.0733146,14.6268776 C33.3655347,17.9611456 33.2802579,21.6730744 31.8360901,24.9446574 L31.8360901,24.9446574 C30.3923653,28.2162404 27.707365,30.7810108 24.3731536,32.0734743 L24.3731536,32.0734743 C22.8040609,32.681497 21.1516848,32.9845116 19.5006377,32.9845116 L19.5006377,32.9845116 C17.6429329,32.9845116 15.7870001,32.6006489 14.0551062,31.8362458" id="Fill-40" fill="url(#linearGradient-8)"></path>
            <path d="M19.5001947,0 C17.1124449,0 14.7222586,0.43835225 12.4534532,1.31771477 L12.4534532,1.31771477 C7.63121743,3.18674776 3.74857671,6.89446797 1.66029234,11.6261914 L1.66029234,11.6261914 C-0.428213535,16.3574719 -0.550923499,21.7249058 1.31807772,26.5470021 L1.31807772,26.5470021 C3.18685745,31.3686553 6.89473615,35.251362 11.6261577,37.3396819 L11.6261577,37.3396819 C16.3571363,39.4277803 21.724922,39.5511568 26.5471578,37.6823453 L26.5471578,37.6823453 C31.3691721,35.8133123 35.2513698,32.1049276 37.3398757,27.3738686 L37.3398757,27.3738686 C39.427717,22.6428097 39.5510915,17.2749328 37.6825333,12.453058 L37.6825333,12.453058 C35.8133105,7.63074027 32.1049888,3.74825506 27.3737888,1.6603782 L27.3737888,1.6603782 C24.8693094,0.554862246 22.1871886,0 19.5015237,0 L19.5015237,0 L19.5001947,0 M14.0551062,31.8362458 C10.7835788,30.3924965 8.21929497,27.7074505 6.92707488,24.372961 L6.92707488,24.372961 C5.63463329,21.03825 5.71968857,17.3265427 7.16385638,14.0551812 L7.16385638,14.0551812 C8.60758119,10.7835982 11.2925815,8.2192708 14.6272359,6.92702875 L14.6272359,6.92702875 C17.9616687,5.6347867 21.6733129,5.71962192 24.9446188,7.16381428 L24.9446188,7.16381428 C28.2165892,8.60778513 30.7810945,11.2926096 32.0733146,14.6268776 L32.0733146,14.6268776 C33.3655347,17.9611456 33.2802579,21.6730744 31.8360901,24.9446574 L31.8360901,24.9446574 C30.3923653,28.2162404 27.707365,30.7810108 24.3731536,32.0734743 L24.3731536,32.0734743 C22.8040609,32.681497 21.1516848,32.9845116 19.5006377,32.9845116 L19.5006377,32.9845116 C17.6429329,32.9845116 15.7870001,32.6006489 14.0551062,31.8362458" id="Fill-40" fill="url(#linearGradient-8)"></path>
            <polygon id="Fill-43" fill="url(#linearGradient-1)" points="24.2676238 19.3971133 29.4339623 25.9567656 21.5542376 23.7928297 17.1300712 30.9056604 16.6791231 22.4494601 8.83018868 20.2886283 16.392817 17.2464803 15.9570502 8.83018868 21.095592 15.3552535 28.6710496 12.3080061" class="cs-star"></polygon>
        </g>
</svg>